<svg width="17" height="17" viewBox="0 0 17 17" fill="none" xmlns="http://www.w3.org/2000/svg">
<path fill-rule="evenodd" clip-rule="evenodd" d="M11.4158 4.35327C11.747 4.4419 12.0229 4.65273 12.1927 4.94695C12.5205 5.51469 12.3615 6.23195 11.8468 6.61308L10.5766 4.41342C10.8396 4.29934 11.1325 4.27733 11.4158 4.35324V4.35327ZM3.49762 12.6606L5.2702 11.6373L2.93494 7.59812L1.16489 8.62026C0.627988 8.93023 0.243097 9.43359 0.0814132 10.0374C-0.080622 10.6415 0.000905346 11.2699 0.310878 11.8066C0.742702 12.5542 1.52841 12.9726 2.33528 12.9726C2.73068 12.9726 3.13118 12.8721 3.49762 12.6606ZM7.19563 14.9777L5.70708 12.3998L4.31771 13.2019L5.80591 15.78C6.02743 16.1631 6.51891 16.2947 6.90211 16.0736C7.08633 15.9672 7.21852 15.794 7.27445 15.5862C7.33004 15.3782 7.30209 15.1623 7.19563 14.9778V14.9777ZM12.7309 9.90237L8.17016 2.00315C8.07524 1.8384 7.91915 1.74809 7.73036 1.74809C7.72681 1.74809 7.72308 1.74826 7.71953 1.74826C7.52582 1.75181 7.36906 1.84807 7.27821 2.01942C7.1179 2.32194 6.96332 2.64478 6.79977 2.98664C6.11152 4.42415 5.3377 6.04014 3.68883 7.14563L6.03864 11.2109C7.81867 10.3371 9.60464 10.4747 11.1928 10.5974C11.5713 10.6267 11.9284 10.6542 12.2709 10.6667C12.465 10.6742 12.6263 10.5864 12.7261 10.4203C12.8263 10.2542 12.8278 10.0702 12.7311 9.9024L12.7309 9.90237ZM11.5844 1.79165C11.4632 2.00181 11.5353 2.27058 11.7454 2.39194C11.8144 2.43195 11.89 2.45093 11.9646 2.45093C12.1164 2.45093 12.2644 2.37211 12.3456 2.23113L13.2535 0.659227C13.3747 0.449063 13.3026 0.180294 13.0925 0.0589345C12.8821 -0.0623897 12.6135 0.00961034 12.4923 0.219774L11.5844 1.79165ZM16.8762 6.6116C16.8762 6.36909 16.6796 6.17215 16.4356 6.17215L14.621 6.17233C14.3785 6.17233 14.1815 6.36909 14.1815 6.61178C14.1815 6.85446 14.3785 7.05123 14.621 7.05123L16.4356 7.05106C16.6796 7.05106 16.8762 6.85446 16.8762 6.6116ZM15.8254 2.84953C15.7034 2.63937 15.4356 2.56737 15.2255 2.68869L13.6151 3.61812C13.4048 3.73965 13.3328 4.00825 13.4541 4.21859C13.5356 4.3596 13.6833 4.43842 13.8351 4.43842C13.9097 4.43842 13.9853 4.41926 14.0546 4.37943L15.6645 3.44983C15.8746 3.32847 15.9475 3.0597 15.8254 2.84953Z" fill="#363636"/>
</svg>
