<svg width="20" height="20" viewBox="0 0 20 20" fill="none" xmlns="http://www.w3.org/2000/svg">
<path fill-rule="evenodd" clip-rule="evenodd" d="M0.402388 17.6595C-0.133065 18.195 -0.132982 19.063 0.402552 19.5985C0.938087 20.1339 1.80627 20.1339 2.34171 19.5983L10.0002 11.9391L17.6593 19.5976C18.1947 20.133 19.063 20.133 19.5984 19.5976C20.1339 19.0622 20.1339 18.194 19.5984 17.6586L11.9392 9.99998L19.5979 2.34052C20.1332 1.80503 20.1332 0.936907 19.5976 0.401508C19.0621 -0.133904 18.1939 -0.133822 17.6584 0.401672L9.9999 8.06097L2.34078 0.40233C1.8053 -0.133109 0.9371 -0.133109 0.40162 0.40233C-0.133873 0.937784 -0.133873 1.80591 0.40162 2.34136L8.06103 10.0001L0.402388 17.6595Z" fill="white"/>
</svg>
