<svg width="444" height="243" viewBox="0 0 444 243" fill="none" xmlns="http://www.w3.org/2000/svg">
<path d="M279.054 160.344L191.387 6.81142C189.247 3.06492 185.385 0.772949 181.23 0.772949H126.176L260.502 236.626C262.643 240.387 266.504 242.679 270.674 242.679H323.489L279.054 160.344Z" fill="#AECFFF"/>
<path d="M327.584 0.772949C323.372 0.772949 319.483 3.109 317.356 6.92895L257.839 113.711C255.699 117.531 255.671 122.277 257.755 126.126L276.223 160.344L323.247 242.679H412.313C416.524 242.679 420.413 240.328 422.54 236.508L441.959 201.644C444.156 197.692 441.442 192.726 437.09 192.726H372.257C368.059 192.726 364.184 190.404 362.043 186.599L328.549 126.993C326.129 122.688 326.394 117.282 329.235 113.256L361.931 66.9463C364.17 63.7728 367.696 61.9069 371.459 61.9069H411.641C416.202 61.9069 420.371 59.1595 422.33 54.8253L443.065 9.23562C444.841 5.31282 442.113 0.772949 437.958 0.772949H327.57H327.584Z" fill="#9966FF"/>
<path d="M71.7387 0.772949C67.5275 0.772949 63.638 3.109 61.5114 6.92895L1.99411 113.711C-0.13251 117.531 -0.174482 122.277 1.91016 126.126L61.4134 236.361C63.5261 240.255 67.4575 242.664 71.7247 242.664H156.468C160.679 242.664 164.568 240.314 166.695 236.494L186.114 201.629C188.311 197.677 185.597 192.711 181.245 192.711H116.412C112.214 192.711 108.339 190.39 106.198 186.584L72.7041 126.978C70.2837 122.674 70.5495 117.267 73.3896 113.241L109.64 61.9069H161.099L126.275 0.772949H71.7387Z" fill="#6167F8"/>
</svg>
